<?xml version="1.0" encoding="UTF-8" standalone="no"?>
<svg
   xmlns:dc="http://purl.org/dc/elements/1.1/"
   xmlns:cc="http://creativecommons.org/ns#"
   xmlns:rdf="http://www.w3.org/1999/02/22-rdf-syntax-ns#"
   xmlns:svg="http://www.w3.org/2000/svg"
   xmlns="http://www.w3.org/2000/svg"
   id="svg24"
   version="1.1"
   style="overflow:visible"
   viewBox="-240 -126 480 252"
   height="1008px"
   width="1920px">
  <metadata
     id="metadata30">
    <rdf:RDF>
      <cc:Work
         rdf:about="">
        <dc:format>image/svg+xml</dc:format>
        <dc:type
           rdf:resource="http://purl.org/dc/dcmitype/StillImage" />
      </cc:Work>
    </rdf:RDF>
  </metadata>
  <defs
     id="defs28" />
  <rect
     id="rect2"
     fill-opacity="0"
     fill="rgb(0,0,0)"
     height="252"
     width="480"
     y="-126"
     x="-240" />
  <svg
     id="svg22"
     version="1.1"
     y="-250"
     x="-250"
     viewBox="-250 -250 500 500"
     height="500"
     width="500"
     style="overflow:visible">
    <g
       style="fill:#ffffff;stroke-linejoin:round"
       id="g20">
      <path
         style="fill:#ef5671;fill-opacity:1;stroke:none;stroke-linecap:butt;stroke-linejoin:round"
         id="path4"
         d="m -78.205001,-16.747001 -85.332299,60.5718 c 4.77705,5.12724 9.66566,9.64893 14.6834,13.6481 h 297.707 c 5.01771,-3.99919 9.90632,-8.52088 14.6834,-13.6481 l -85.332301,-60.5718 z" />
      <path
         style="fill:#ff6581;fill-opacity:1;stroke:none;stroke-linecap:butt;stroke-linejoin:round"
         id="path6"
         d="m -57.798,19.079999 c -3.57898,10e-4 -7.09431,0.28672 -10.511,0.96301 -14.3545,2.84126 -51.1807,25.5619 -80.5447,37.4303 38.6643,30.8161 85.0919,30.2263 148.854,30.2263 63.7621,0 110.189,0.5898 148.854,-30.2263 -29.364,-11.8684 -66.190201,-34.589 -80.5447,-37.4303 -3.41672,-0.67629 -6.93204,-0.96201 -10.511,-0.96301 -19.3264,-0.006 -40.4916,8.29202 -57.7978,8.29202 -17.3062,0 -38.4714,-8.29847 -57.7978,-8.292021 z" />
      <path
         style="fill:#ff92a5;fill-opacity:1;stroke:none;stroke-linecap:butt;stroke-linejoin:round"
         id="path8"
         d="m 35.196,40.459 c 14.6546,-4.80738 45.3292,-1.37352 56.5763,0 6.02399,0.73568 22.3972,7.93535 5.79387,20.9462 -9.20207,7.211 -41.933,9.2021 -57.2576,8.58453 -17.0403,-0.68677 -21.9679,-24.0021 -5.11223,-29.5312 z" />
      <path
         style="fill:none;stroke:#444444;stroke-width:10;stroke-linecap:butt;stroke-linejoin:round;stroke-opacity:1"
         id="path10"
         d="m -78.205001,-16.747001 -85.332299,60.5718 c 41.587,44.6356 91.500499,43.8744 163.536999,43.8744 72.0365,0 121.950001,0.76121 163.537001,-43.8744 l -85.332301,-60.5718 z" />
      <path
         style="fill:#ef5671;fill-opacity:1;stroke:none;stroke-linecap:butt;stroke-linejoin:round"
         id="path12"
         d="m -87.096,-56.256 -72.2337,67.5548 -37.0764,8.42943 c -3.58784,7.10082 10.2605,20.473 17.4825,22.6238 28.5351,8.49808 85.1412,-43.0958 121.233,-44.3139 19.3871,-0.65435 27.1853,4.95606 57.6904,6.21364 30.5051,-1.25758 38.3033,-6.86799 57.6904,-6.21364 36.0919,1.21812 92.698,52.812 121.233,44.3139 7.22203,-2.1508 21.0704,-15.523 17.4825,-22.6238 l -29.2333,-2.18782 -90.9747,-73.7964 z" />
      <path
         style="fill:#ff6581;fill-opacity:1;stroke:none;stroke-linecap:butt;stroke-linejoin:round"
         id="path14"
         d="m -54.870001,-87.699001 c -2.69811,-0.0289 -5.43547,0.25989 -8.22167,0.93956 -52.414799,12.7861 -82.203199,86.3022 -129.137999,103.204 -2.15777,0.77705 -3.4852,1.91588 -4.17627,3.28361 42.7811,28.2063 81.5842,-53.4362 136.001999,-52.9556 24.814,0.21916 41.9848,7.55508 60.4036,7.5556 18.4188,-5.2e-4 35.5896,-7.33644 60.4036,-7.5556 54.418201,-0.48064 93.221301,81.1619 136.002001,52.9556 -0.69107,-1.36773 -2.01849,-2.50656 -4.17628,-3.28361 -46.935,-16.9016 -76.7235,-90.4177 -129.138001,-103.204 -2.7862,-0.67967 -5.52357,-0.96847 -8.22167,-0.93956 -18.8868,0.20206 -35.8904,15.8994 -54.8698,20.9849 -18.9794,-5.08553 -35.983,-20.7829 -54.8698,-20.9849 z" />
      <path
         style="fill:#ff92a5;fill-opacity:1;stroke:none;stroke-linecap:butt;stroke-linejoin:round"
         id="path16"
         d="m 68.721999,-67.356 c 9.81447,4.46974 35.376901,20.725 32.676001,27.7231 -4.012861,10.3962 -37.309401,-1.93678 -45.861201,-6.35321 -15.053,-7.77439 0.15761,-27.3034 13.185,-21.3702 z" />
      <path
         style="fill:none;stroke:#444444;stroke-width:10;stroke-linecap:butt;stroke-linejoin:round;stroke-opacity:1"
         id="path18"
         d="m -54.870001,-87.699001 c -2.69811,-0.0289 -5.43547,0.25989 -8.22167,0.93956 -52.414799,12.7861 -82.203199,86.3022 -129.137999,103.204 -13.3603,4.81115 4.69316,23.3423 13.3063,25.9074 28.5351,8.49808 85.141199,-43.0958 121.232999,-44.3139 19.3871,-0.65435 27.1853,4.95606 57.6904,6.21364 30.5051,-1.25758 38.3033,-6.86799 57.6904,-6.21364 36.0919,1.21812 92.698001,52.812 121.233001,44.3139 8.61311,-2.56508 26.6666,-21.0963 13.3062,-25.9074 -46.935,-16.9016 -76.7235,-90.4177 -129.138001,-103.204 -22.2896,-5.43734 -41.4007,14.2334 -63.0914,20.0454 -18.9794,-5.08553 -35.983,-20.7829 -54.8698,-20.9849 z" />
    </g>
  </svg>
</svg>
